<svg xmlns="http://www.w3.org/2000/svg" xmlns:xlink="http://www.w3.org/1999/xlink" width="384" zoomAndPan="magnify" viewBox="0 0 288 287.999989" height="384" preserveAspectRatio="xMidYMid meet" version="1.0"><rect x="-28.8" width="345.6" fill="#ffffff" y="-28.799999" height="345.599986" fill-opacity="1"/><rect x="-28.8" width="345.6" fill="#ffffff" y="-28.799999" height="345.599986" fill-opacity="1"/><path fill="#ed1c24" d="M 183.058594 154.332031 C 175.375 154.332031 168.1875 152.203125 162.054688 148.507812 L 140.324219 154.332031 L 146.441406 131.5 C 143.785156 126.089844 142.292969 120.003906 142.292969 113.566406 C 142.292969 91.050781 160.542969 72.800781 183.058594 72.800781 C 205.570312 72.800781 223.820312 91.050781 223.820312 113.566406 C 223.820312 136.078125 205.570312 154.332031 183.058594 154.332031 Z M 200.382812 235.265625 L 194.597656 239.175781 C 190.414062 241.992188 184.742188 240.894531 181.917969 236.710938 L 161.363281 206.257812 C 158.542969 202.078125 159.644531 196.402344 163.824219 193.578125 L 169.613281 189.675781 C 173.792969 186.851562 179.472656 187.957031 182.289062 192.132812 L 202.84375 222.585938 C 205.667969 226.765625 204.566406 232.445312 200.382812 235.265625 Z M 160.046875 239.957031 C 128.882812 230.113281 102.757812 195.644531 93.550781 181.640625 C 84.007812 167.867188 61.816406 130.746094 64.339844 98.160156 C 64.839844 91.722656 67.105469 84.4375 71.296875 79.21875 L 72.5625 81.09375 L 93.117188 111.546875 L 95.648438 115.289062 C 92.785156 117.949219 88.078125 122.789062 97.582031 145.421875 C 104.820312 162.648438 115.378906 178.296875 128.648438 191.449219 C 146.082031 208.726562 152.335938 206.175781 155.867188 204.515625 L 158.398438 208.265625 L 178.953125 238.714844 L 180.21875 240.589844 C 173.808594 242.523438 166.203125 241.902344 160.046875 239.957031 Z M 77.992188 66.410156 L 83.78125 62.503906 C 87.960938 59.683594 93.636719 60.785156 96.457031 64.964844 L 117.011719 95.417969 C 119.832031 99.597656 118.730469 105.273438 114.550781 108.097656 L 108.761719 112.003906 C 104.582031 114.824219 98.90625 113.722656 96.085938 109.542969 L 75.53125 79.089844 C 72.710938 74.910156 73.8125 69.230469 77.992188 66.410156 Z M 143.980469 -0.015625 C 64.453125 -0.015625 -0.015625 64.453125 -0.015625 143.980469 C -0.015625 223.511719 64.453125 287.980469 143.980469 287.980469 C 223.511719 287.980469 287.980469 223.511719 287.980469 143.980469 C 287.980469 64.453125 223.511719 -0.015625 143.980469 -0.015625 Z M 191.476562 89.960938 L 174.851562 89.960938 L 174.851562 106.074219 L 158.734375 106.074219 L 158.734375 122.703125 L 174.851562 122.703125 L 174.851562 138.816406 L 191.476562 138.816406 L 191.476562 122.703125 L 207.589844 122.703125 L 207.589844 106.074219 L 191.476562 106.074219 L 191.476562 89.960938 " fill-opacity="1" fill-rule="nonzero"/></svg>