<svg xmlns="http://www.w3.org/2000/svg" xmlns:xlink="http://www.w3.org/1999/xlink" width="384" zoomAndPan="magnify" viewBox="0 0 288 287.999989" height="384" preserveAspectRatio="xMidYMid meet" version="1.0"><rect x="-28.8" width="345.6" fill="#ffffff" y="-28.799999" height="345.599986" fill-opacity="1"/><rect x="-28.8" width="345.6" fill="#ffffff" y="-28.799999" height="345.599986" fill-opacity="1"/><path fill="#ed1c24" d="M 126.304688 218.734375 C 126.304688 208.269531 133.796875 200.707031 143.992188 200.707031 C 154.785156 200.707031 161.683594 208.269531 161.683594 218.734375 C 161.683594 228.910156 154.785156 236.761719 143.992188 236.761719 C 133.5 236.761719 126.304688 228.910156 126.304688 218.734375 Z M 132.464844 174.921875 L 124.136719 71.445312 C 123.722656 66.269531 132.8125 62.050781 143.992188 62.050781 C 155.179688 62.050781 164.265625 66.296875 163.851562 71.445312 L 155.523438 174.921875 C 155.238281 178.4375 150.179688 181.207031 143.992188 181.207031 C 137.820312 181.207031 132.746094 178.4375 132.464844 174.921875 Z M 132.464844 174.921875 " fill-opacity="1" fill-rule="nonzero"/><path fill="#ed1c24" d="M 143.992188 287.988281 C 64.59375 287.988281 0 223.390625 0 143.992188 C 0 64.59375 64.59375 0 143.992188 0 C 223.390625 0 287.988281 64.59375 287.988281 143.992188 C 287.988281 223.390625 223.390625 287.988281 143.992188 287.988281 Z M 143.992188 24.550781 C 78.128906 24.550781 24.550781 78.128906 24.550781 143.992188 C 24.550781 209.855469 78.128906 263.4375 143.992188 263.4375 C 209.855469 263.4375 263.4375 209.855469 263.4375 143.992188 C 263.4375 78.128906 209.855469 24.550781 143.992188 24.550781 Z M 143.992188 24.550781 " fill-opacity="1" fill-rule="nonzero"/></svg>