<svg xmlns="http://www.w3.org/2000/svg" xmlns:xlink="http://www.w3.org/1999/xlink" width="384" zoomAndPan="magnify" viewBox="0 0 288 287.999989" height="384" preserveAspectRatio="xMidYMid meet" version="1.0"><rect x="-28.8" width="345.6" fill="#ffffff" y="-28.799999" height="345.599986" fill-opacity="1"/><rect x="-28.8" width="345.6" fill="#ffffff" y="-28.799999" height="345.599986" fill-opacity="1"/><path fill="#ed1c24" d="M 4.800781 230.398438 L 9.601562 230.398438 L 9.601562 283.199219 C 9.601562 283.515625 9.628906 283.828125 9.691406 284.136719 C 9.753906 284.445312 9.84375 284.746094 9.964844 285.035156 C 10.085938 285.328125 10.234375 285.605469 10.410156 285.867188 C 10.585938 286.128906 10.78125 286.371094 11.007812 286.59375 C 11.230469 286.816406 11.472656 287.015625 11.734375 287.191406 C 11.996094 287.367188 12.273438 287.515625 12.5625 287.632812 C 12.855469 287.753906 13.15625 287.847656 13.464844 287.90625 C 13.773438 287.96875 14.085938 288 14.398438 288 L 52.800781 288 C 53.113281 288 53.425781 287.96875 53.738281 287.90625 C 54.046875 287.847656 54.34375 287.753906 54.636719 287.632812 C 54.929688 287.515625 55.203125 287.367188 55.464844 287.191406 C 55.730469 287.015625 55.972656 286.816406 56.195312 286.59375 C 56.417969 286.371094 56.617188 286.128906 56.792969 285.867188 C 56.964844 285.605469 57.113281 285.328125 57.234375 285.035156 C 57.355469 284.746094 57.445312 284.445312 57.507812 284.136719 C 57.570312 283.828125 57.601562 283.515625 57.601562 283.199219 L 57.601562 230.398438 L 62.398438 230.398438 C 62.714844 230.398438 63.027344 230.371094 63.335938 230.308594 C 63.644531 230.246094 63.945312 230.15625 64.238281 230.035156 C 64.527344 229.914062 64.804688 229.765625 65.066406 229.589844 C 65.328125 229.414062 65.570312 229.21875 65.792969 228.992188 C 66.015625 228.769531 66.214844 228.527344 66.390625 228.265625 C 66.566406 228.003906 66.714844 227.726562 66.835938 227.4375 C 66.957031 227.144531 67.046875 226.84375 67.109375 226.535156 C 67.167969 226.226562 67.199219 225.914062 67.199219 225.601562 L 67.199219 187.199219 C 67.199219 186.414062 67.160156 185.628906 67.082031 184.847656 C 67.003906 184.066406 66.886719 183.289062 66.734375 182.519531 C 66.582031 181.75 66.390625 180.988281 66.160156 180.238281 C 65.929688 179.484375 65.667969 178.746094 65.367188 178.019531 C 65.0625 177.292969 64.726562 176.585938 64.359375 175.890625 C 63.988281 175.199219 63.582031 174.527344 63.144531 173.875 C 62.710938 173.21875 62.242188 172.589844 61.742188 171.980469 C 61.246094 171.375 60.71875 170.792969 60.164062 170.238281 C 59.605469 169.683594 59.023438 169.15625 58.417969 168.65625 C 57.808594 168.15625 57.179688 167.691406 56.527344 167.253906 C 55.875 166.816406 55.199219 166.414062 54.507812 166.042969 C 53.816406 165.671875 53.105469 165.335938 52.378906 165.035156 C 51.652344 164.734375 50.914062 164.46875 50.164062 164.238281 C 49.410156 164.011719 48.652344 163.820312 47.878906 163.664062 C 47.109375 163.511719 46.332031 163.394531 45.550781 163.316406 C 44.769531 163.242188 43.984375 163.199219 43.199219 163.199219 L 24 163.199219 C 23.214844 163.199219 22.429688 163.242188 21.648438 163.316406 C 20.867188 163.394531 20.089844 163.511719 19.320312 163.664062 C 18.550781 163.820312 17.789062 164.011719 17.035156 164.238281 C 16.285156 164.46875 15.546875 164.734375 14.820312 165.035156 C 14.09375 165.335938 13.386719 165.671875 12.691406 166.042969 C 12 166.414062 11.328125 166.816406 10.671875 167.253906 C 10.019531 167.691406 9.390625 168.15625 8.78125 168.65625 C 8.175781 169.15625 7.59375 169.683594 7.039062 170.238281 C 6.480469 170.792969 5.957031 171.375 5.457031 171.980469 C 4.957031 172.589844 4.492188 173.21875 4.054688 173.875 C 3.617188 174.527344 3.214844 175.199219 2.84375 175.890625 C 2.472656 176.585938 2.136719 177.292969 1.835938 178.019531 C 1.535156 178.746094 1.269531 179.484375 1.039062 180.238281 C 0.8125 180.988281 0.621094 181.75 0.464844 182.519531 C 0.3125 183.289062 0.195312 184.066406 0.117188 184.847656 C 0.0390625 185.628906 0 186.414062 0 187.199219 L 0 225.601562 C 0 225.914062 0.03125 226.226562 0.09375 226.535156 C 0.152344 226.84375 0.246094 227.144531 0.367188 227.4375 C 0.484375 227.726562 0.632812 228.003906 0.808594 228.265625 C 0.984375 228.527344 1.183594 228.769531 1.40625 228.992188 C 1.628906 229.21875 1.871094 229.414062 2.132812 229.589844 C 2.394531 229.765625 2.671875 229.914062 2.964844 230.035156 C 3.253906 230.15625 3.554688 230.246094 3.863281 230.308594 C 4.171875 230.371094 4.484375 230.398438 4.800781 230.398438 Z M 9.601562 187.199219 C 9.601562 186.253906 9.691406 185.316406 9.875 184.390625 C 10.0625 183.464844 10.335938 182.5625 10.695312 181.6875 C 11.058594 180.816406 11.5 179.984375 12.027344 179.199219 C 12.550781 178.414062 13.148438 177.6875 13.816406 177.019531 C 14.484375 176.347656 15.214844 175.753906 16 175.226562 C 16.785156 174.703125 17.617188 174.257812 18.488281 173.894531 C 19.363281 173.535156 20.261719 173.261719 21.191406 173.078125 C 22.117188 172.890625 23.054688 172.800781 24 172.800781 L 43.199219 172.800781 C 44.144531 172.800781 45.082031 172.890625 46.007812 173.078125 C 46.9375 173.261719 47.835938 173.535156 48.710938 173.894531 C 49.585938 174.257812 50.414062 174.703125 51.199219 175.226562 C 51.988281 175.753906 52.714844 176.347656 53.382812 177.019531 C 54.050781 177.6875 54.648438 178.414062 55.171875 179.199219 C 55.699219 179.984375 56.140625 180.816406 56.503906 181.6875 C 56.867188 182.5625 57.140625 183.464844 57.324219 184.390625 C 57.507812 185.316406 57.601562 186.253906 57.601562 187.199219 L 57.601562 220.800781 L 52.800781 220.800781 C 52.484375 220.800781 52.171875 220.832031 51.863281 220.890625 C 51.554688 220.953125 51.253906 221.042969 50.964844 221.164062 C 50.671875 221.285156 50.394531 221.433594 50.132812 221.609375 C 49.871094 221.785156 49.628906 221.984375 49.40625 222.207031 C 49.183594 222.429688 48.984375 222.671875 48.808594 222.933594 C 48.632812 223.195312 48.484375 223.472656 48.367188 223.761719 C 48.246094 224.054688 48.152344 224.355469 48.09375 224.664062 C 48.03125 224.972656 48 225.285156 48 225.601562 L 48 278.398438 L 19.199219 278.398438 L 19.199219 225.601562 C 19.199219 225.285156 19.167969 224.972656 19.109375 224.664062 C 19.046875 224.355469 18.957031 224.054688 18.835938 223.761719 C 18.714844 223.472656 18.566406 223.195312 18.390625 222.933594 C 18.214844 222.671875 18.015625 222.429688 17.792969 222.207031 C 17.570312 221.984375 17.328125 221.785156 17.066406 221.609375 C 16.804688 221.433594 16.527344 221.285156 16.238281 221.164062 C 15.945312 221.042969 15.644531 220.953125 15.335938 220.890625 C 15.027344 220.832031 14.714844 220.800781 14.398438 220.800781 L 9.601562 220.800781 Z M 9.601562 187.199219 " fill-opacity="1" fill-rule="nonzero"/><path fill="#ed1c24" d="M 52.800781 144 C 52.800781 143.371094 52.769531 142.742188 52.707031 142.117188 C 52.644531 141.492188 52.554688 140.871094 52.429688 140.253906 C 52.308594 139.636719 52.15625 139.027344 51.972656 138.425781 C 51.789062 137.824219 51.578125 137.234375 51.339844 136.652344 C 51.097656 136.070312 50.828125 135.503906 50.53125 134.949219 C 50.238281 134.394531 49.914062 133.855469 49.5625 133.332031 C 49.214844 132.808594 48.839844 132.304688 48.441406 131.820312 C 48.042969 131.332031 47.621094 130.867188 47.175781 130.421875 C 46.730469 129.980469 46.265625 129.558594 45.78125 129.15625 C 45.292969 128.757812 44.789062 128.386719 44.265625 128.035156 C 43.742188 127.6875 43.207031 127.363281 42.652344 127.066406 C 42.097656 126.769531 41.527344 126.503906 40.949219 126.261719 C 40.367188 126.019531 39.773438 125.808594 39.171875 125.625 C 38.570312 125.445312 37.960938 125.292969 37.347656 125.167969 C 36.730469 125.046875 36.109375 124.953125 35.480469 124.890625 C 34.855469 124.832031 34.230469 124.800781 33.601562 124.800781 C 32.972656 124.800781 32.34375 124.832031 31.71875 124.890625 C 31.09375 124.953125 30.472656 125.046875 29.855469 125.167969 C 29.238281 125.292969 28.628906 125.445312 28.027344 125.625 C 27.425781 125.808594 26.832031 126.019531 26.253906 126.261719 C 25.671875 126.503906 25.105469 126.769531 24.550781 127.066406 C 23.996094 127.363281 23.457031 127.6875 22.933594 128.035156 C 22.410156 128.386719 21.90625 128.757812 21.417969 129.15625 C 20.933594 129.558594 20.46875 129.980469 20.023438 130.421875 C 19.578125 130.867188 19.15625 131.332031 18.757812 131.820312 C 18.359375 132.304688 17.984375 132.808594 17.636719 133.332031 C 17.285156 133.855469 16.964844 134.394531 16.667969 134.949219 C 16.371094 135.503906 16.101562 136.070312 15.863281 136.652344 C 15.621094 137.234375 15.410156 137.824219 15.226562 138.425781 C 15.042969 139.027344 14.890625 139.636719 14.769531 140.253906 C 14.644531 140.871094 14.554688 141.492188 14.492188 142.117188 C 14.429688 142.742188 14.398438 143.371094 14.398438 144 C 14.398438 144.628906 14.429688 145.257812 14.492188 145.882812 C 14.554688 146.507812 14.644531 147.128906 14.769531 147.746094 C 14.890625 148.363281 15.042969 148.972656 15.226562 149.574219 C 15.410156 150.175781 15.621094 150.765625 15.863281 151.347656 C 16.101562 151.929688 16.371094 152.496094 16.667969 153.050781 C 16.964844 153.605469 17.285156 154.144531 17.636719 154.667969 C 17.984375 155.191406 18.359375 155.695312 18.757812 156.179688 C 19.15625 156.667969 19.578125 157.132812 20.023438 157.578125 C 20.46875 158.019531 20.933594 158.441406 21.417969 158.839844 C 21.90625 159.242188 22.410156 159.613281 22.933594 159.964844 C 23.457031 160.3125 23.996094 160.636719 24.550781 160.933594 C 25.105469 161.230469 25.671875 161.496094 26.253906 161.738281 C 26.832031 161.980469 27.425781 162.191406 28.027344 162.375 C 28.628906 162.554688 29.238281 162.707031 29.855469 162.832031 C 30.472656 162.953125 31.09375 163.046875 31.71875 163.109375 C 32.34375 163.167969 32.972656 163.199219 33.601562 163.199219 C 34.230469 163.199219 34.855469 163.167969 35.480469 163.109375 C 36.109375 163.046875 36.730469 162.953125 37.347656 162.832031 C 37.960938 162.707031 38.570312 162.554688 39.171875 162.375 C 39.773438 162.191406 40.367188 161.980469 40.949219 161.738281 C 41.527344 161.496094 42.097656 161.230469 42.652344 160.933594 C 43.207031 160.636719 43.742188 160.3125 44.265625 159.964844 C 44.789062 159.613281 45.292969 159.242188 45.78125 158.839844 C 46.265625 158.441406 46.730469 158.019531 47.175781 157.578125 C 47.621094 157.132812 48.042969 156.667969 48.441406 156.179688 C 48.839844 155.695312 49.214844 155.191406 49.5625 154.667969 C 49.914062 154.144531 50.238281 153.605469 50.53125 153.050781 C 50.828125 152.496094 51.097656 151.929688 51.339844 151.347656 C 51.578125 150.765625 51.789062 150.175781 51.972656 149.574219 C 52.15625 148.972656 52.308594 148.363281 52.429688 147.746094 C 52.554688 147.128906 52.644531 146.507812 52.707031 145.882812 C 52.769531 145.257812 52.800781 144.628906 52.800781 144 Z M 33.601562 153.601562 C 32.96875 153.601562 32.34375 153.539062 31.726562 153.414062 C 31.109375 153.292969 30.507812 153.109375 29.925781 152.871094 C 29.34375 152.628906 28.789062 152.332031 28.265625 151.980469 C 27.742188 151.632812 27.257812 151.234375 26.8125 150.789062 C 26.367188 150.34375 25.96875 149.859375 25.617188 149.332031 C 25.269531 148.808594 24.972656 148.257812 24.730469 147.671875 C 24.488281 147.089844 24.308594 146.492188 24.183594 145.871094 C 24.0625 145.253906 24 144.628906 24 144 C 24 143.371094 24.0625 142.746094 24.183594 142.128906 C 24.308594 141.507812 24.488281 140.910156 24.730469 140.328125 C 24.972656 139.742188 25.269531 139.191406 25.617188 138.667969 C 25.96875 138.140625 26.367188 137.65625 26.8125 137.210938 C 27.257812 136.765625 27.742188 136.367188 28.265625 136.019531 C 28.789062 135.667969 29.34375 135.371094 29.925781 135.128906 C 30.507812 134.890625 31.109375 134.707031 31.726562 134.585938 C 32.34375 134.460938 32.96875 134.398438 33.601562 134.398438 C 34.230469 134.398438 34.855469 134.460938 35.472656 134.585938 C 36.089844 134.707031 36.691406 134.890625 37.273438 135.128906 C 37.855469 135.371094 38.410156 135.667969 38.933594 136.019531 C 39.457031 136.367188 39.941406 136.765625 40.386719 137.210938 C 40.832031 137.65625 41.230469 138.140625 41.582031 138.667969 C 41.933594 139.191406 42.226562 139.742188 42.46875 140.328125 C 42.710938 140.910156 42.890625 141.507812 43.015625 142.128906 C 43.136719 142.746094 43.199219 143.371094 43.199219 144 C 43.199219 144.628906 43.136719 145.253906 43.015625 145.871094 C 42.890625 146.492188 42.710938 147.089844 42.46875 147.671875 C 42.226562 148.257812 41.933594 148.808594 41.582031 149.332031 C 41.230469 149.859375 40.832031 150.34375 40.386719 150.789062 C 39.941406 151.234375 39.457031 151.632812 38.933594 151.980469 C 38.410156 152.332031 37.855469 152.628906 37.273438 152.871094 C 36.691406 153.109375 36.089844 153.292969 35.472656 153.414062 C 34.855469 153.539062 34.230469 153.601562 33.601562 153.601562 Z M 33.601562 153.601562 " fill-opacity="1" fill-rule="nonzero"/><path fill="#ed1c24" d="M 129.601562 144 C 129.601562 143.371094 129.570312 142.742188 129.507812 142.117188 C 129.445312 141.492188 129.355469 140.871094 129.230469 140.253906 C 129.109375 139.636719 128.957031 139.027344 128.773438 138.425781 C 128.589844 137.824219 128.378906 137.234375 128.136719 136.652344 C 127.898438 136.070312 127.628906 135.503906 127.332031 134.949219 C 127.035156 134.394531 126.714844 133.855469 126.363281 133.332031 C 126.015625 132.808594 125.640625 132.304688 125.242188 131.820312 C 124.84375 131.332031 124.421875 130.867188 123.976562 130.421875 C 123.53125 129.980469 123.066406 129.558594 122.582031 129.15625 C 122.09375 128.757812 121.589844 128.386719 121.066406 128.035156 C 120.542969 127.6875 120.003906 127.363281 119.449219 127.066406 C 118.894531 126.769531 118.328125 126.503906 117.746094 126.261719 C 117.167969 126.019531 116.574219 125.808594 115.972656 125.625 C 115.371094 125.445312 114.761719 125.292969 114.144531 125.167969 C 113.527344 125.046875 112.90625 124.953125 112.28125 124.890625 C 111.65625 124.832031 111.027344 124.800781 110.398438 124.800781 C 109.769531 124.800781 109.144531 124.832031 108.519531 124.890625 C 107.890625 124.953125 107.269531 125.046875 106.652344 125.167969 C 106.039062 125.292969 105.429688 125.445312 104.828125 125.625 C 104.226562 125.808594 103.632812 126.019531 103.050781 126.261719 C 102.472656 126.503906 101.902344 126.769531 101.347656 127.066406 C 100.792969 127.363281 100.257812 127.6875 99.734375 128.035156 C 99.210938 128.386719 98.707031 128.757812 98.21875 129.15625 C 97.734375 129.558594 97.269531 129.980469 96.824219 130.421875 C 96.378906 130.867188 95.957031 131.332031 95.558594 131.820312 C 95.160156 132.304688 94.785156 132.808594 94.4375 133.332031 C 94.085938 133.855469 93.761719 134.394531 93.46875 134.949219 C 93.171875 135.503906 92.902344 136.070312 92.660156 136.652344 C 92.421875 137.234375 92.210938 137.824219 92.027344 138.425781 C 91.84375 139.027344 91.691406 139.636719 91.570312 140.253906 C 91.445312 140.871094 91.355469 141.492188 91.292969 142.117188 C 91.230469 142.742188 91.199219 143.371094 91.199219 144 C 91.199219 144.628906 91.230469 145.257812 91.292969 145.882812 C 91.355469 146.507812 91.445312 147.128906 91.570312 147.746094 C 91.691406 148.363281 91.84375 148.972656 92.027344 149.574219 C 92.210938 150.175781 92.421875 150.765625 92.660156 151.347656 C 92.902344 151.929688 93.171875 152.496094 93.46875 153.050781 C 93.761719 153.605469 94.085938 154.144531 94.4375 154.667969 C 94.785156 155.191406 95.160156 155.695312 95.558594 156.179688 C 95.957031 156.667969 96.378906 157.132812 96.824219 157.578125 C 97.269531 158.019531 97.734375 158.441406 98.21875 158.839844 C 98.707031 159.242188 99.210938 159.613281 99.734375 159.964844 C 100.257812 160.3125 100.792969 160.636719 101.347656 160.933594 C 101.902344 161.230469 102.472656 161.496094 103.050781 161.738281 C 103.632812 161.980469 104.226562 162.191406 104.828125 162.375 C 105.429688 162.554688 106.039062 162.707031 106.652344 162.832031 C 107.269531 162.953125 107.890625 163.046875 108.519531 163.109375 C 109.144531 163.167969 109.769531 163.199219 110.398438 163.199219 C 111.027344 163.199219 111.65625 163.167969 112.28125 163.109375 C 112.90625 163.046875 113.527344 162.953125 114.144531 162.832031 C 114.761719 162.707031 115.371094 162.554688 115.972656 162.375 C 116.574219 162.191406 117.167969 161.980469 117.746094 161.738281 C 118.328125 161.496094 118.894531 161.230469 119.449219 160.933594 C 120.003906 160.636719 120.542969 160.3125 121.066406 159.964844 C 121.589844 159.613281 122.09375 159.242188 122.582031 158.839844 C 123.066406 158.441406 123.53125 158.019531 123.976562 157.578125 C 124.421875 157.132812 124.84375 156.667969 125.242188 156.179688 C 125.640625 155.695312 126.015625 155.191406 126.363281 154.667969 C 126.714844 154.144531 127.035156 153.605469 127.332031 153.050781 C 127.628906 152.496094 127.898438 151.929688 128.136719 151.347656 C 128.378906 150.765625 128.589844 150.175781 128.773438 149.574219 C 128.957031 148.972656 129.109375 148.363281 129.230469 147.746094 C 129.355469 147.128906 129.445312 146.507812 129.507812 145.882812 C 129.570312 145.257812 129.601562 144.628906 129.601562 144 Z M 110.398438 153.601562 C 109.769531 153.601562 109.144531 153.539062 108.527344 153.414062 C 107.910156 153.292969 107.308594 153.109375 106.726562 152.871094 C 106.144531 152.628906 105.589844 152.332031 105.066406 151.980469 C 104.542969 151.632812 104.058594 151.234375 103.613281 150.789062 C 103.167969 150.34375 102.769531 149.859375 102.417969 149.332031 C 102.066406 148.808594 101.773438 148.257812 101.53125 147.671875 C 101.289062 147.089844 101.105469 146.492188 100.984375 145.871094 C 100.863281 145.253906 100.800781 144.628906 100.800781 144 C 100.800781 143.371094 100.863281 142.746094 100.984375 142.128906 C 101.105469 141.507812 101.289062 140.910156 101.53125 140.328125 C 101.773438 139.742188 102.066406 139.191406 102.417969 138.667969 C 102.769531 138.140625 103.167969 137.65625 103.613281 137.210938 C 104.058594 136.765625 104.542969 136.367188 105.066406 136.019531 C 105.589844 135.667969 106.144531 135.371094 106.726562 135.128906 C 107.308594 134.890625 107.910156 134.707031 108.527344 134.585938 C 109.144531 134.460938 109.769531 134.398438 110.398438 134.398438 C 111.03125 134.398438 111.65625 134.460938 112.273438 134.585938 C 112.890625 134.707031 113.492188 134.890625 114.074219 135.128906 C 114.65625 135.371094 115.210938 135.667969 115.734375 136.019531 C 116.257812 136.367188 116.742188 136.765625 117.1875 137.210938 C 117.632812 137.65625 118.03125 138.140625 118.382812 138.667969 C 118.730469 139.191406 119.027344 139.742188 119.269531 140.328125 C 119.511719 140.910156 119.691406 141.507812 119.816406 142.128906 C 119.9375 142.746094 120 143.371094 120 144 C 120 144.628906 119.9375 145.253906 119.816406 145.871094 C 119.691406 146.492188 119.511719 147.089844 119.269531 147.671875 C 119.027344 148.257812 118.730469 148.808594 118.382812 149.332031 C 118.03125 149.859375 117.632812 150.34375 117.1875 150.789062 C 116.742188 151.234375 116.257812 151.632812 115.734375 151.980469 C 115.210938 152.332031 114.65625 152.628906 114.074219 152.871094 C 113.492188 153.109375 112.890625 153.292969 112.273438 153.414062 C 111.65625 153.539062 111.03125 153.601562 110.398438 153.601562 Z M 110.398438 153.601562 " fill-opacity="1" fill-rule="nonzero"/><path fill="#ed1c24" d="M 264 38.398438 C 264 37.769531 263.96875 37.144531 263.90625 36.519531 C 263.847656 35.890625 263.753906 35.269531 263.632812 34.652344 C 263.507812 34.039062 263.355469 33.429688 263.171875 32.828125 C 262.992188 32.226562 262.777344 31.632812 262.539062 31.050781 C 262.296875 30.472656 262.027344 29.902344 261.734375 29.347656 C 261.4375 28.792969 261.113281 28.257812 260.765625 27.734375 C 260.414062 27.210938 260.039062 26.707031 259.640625 26.21875 C 259.242188 25.734375 258.820312 25.269531 258.375 24.824219 C 257.933594 24.378906 257.464844 23.957031 256.980469 23.558594 C 256.496094 23.160156 255.988281 22.785156 255.46875 22.4375 C 254.945312 22.085938 254.40625 21.761719 253.851562 21.46875 C 253.296875 21.171875 252.726562 20.902344 252.148438 20.660156 C 251.566406 20.421875 250.976562 20.210938 250.375 20.027344 C 249.773438 19.84375 249.164062 19.691406 248.546875 19.570312 C 247.929688 19.445312 247.308594 19.355469 246.683594 19.292969 C 246.054688 19.230469 245.429688 19.199219 244.800781 19.199219 C 244.171875 19.199219 243.542969 19.230469 242.917969 19.292969 C 242.292969 19.355469 241.671875 19.445312 241.054688 19.570312 C 240.4375 19.691406 239.828125 19.84375 239.226562 20.027344 C 238.625 20.210938 238.035156 20.421875 237.453125 20.660156 C 236.871094 20.902344 236.304688 21.171875 235.75 21.46875 C 235.195312 21.761719 234.65625 22.085938 234.132812 22.4375 C 233.609375 22.785156 233.105469 23.160156 232.621094 23.558594 C 232.132812 23.957031 231.667969 24.378906 231.222656 24.824219 C 230.777344 25.269531 230.355469 25.734375 229.957031 26.21875 C 229.558594 26.707031 229.183594 27.210938 228.835938 27.734375 C 228.488281 28.257812 228.164062 28.792969 227.867188 29.347656 C 227.570312 29.902344 227.300781 30.472656 227.0625 31.050781 C 226.820312 31.632812 226.609375 32.226562 226.425781 32.828125 C 226.246094 33.429688 226.089844 34.039062 225.96875 34.652344 C 225.847656 35.269531 225.753906 35.890625 225.691406 36.519531 C 225.628906 37.144531 225.601562 37.769531 225.601562 38.398438 C 225.601562 39.027344 225.628906 39.65625 225.691406 40.28125 C 225.753906 40.90625 225.847656 41.527344 225.96875 42.144531 C 226.089844 42.761719 226.246094 43.371094 226.425781 43.972656 C 226.609375 44.574219 226.820312 45.167969 227.0625 45.746094 C 227.300781 46.328125 227.570312 46.894531 227.867188 47.449219 C 228.164062 48.003906 228.488281 48.542969 228.835938 49.066406 C 229.183594 49.589844 229.558594 50.09375 229.957031 50.582031 C 230.355469 51.066406 230.777344 51.53125 231.222656 51.976562 C 231.667969 52.421875 232.132812 52.84375 232.621094 53.242188 C 233.105469 53.640625 233.609375 54.015625 234.132812 54.363281 C 234.65625 54.714844 235.195312 55.035156 235.75 55.332031 C 236.304688 55.628906 236.871094 55.898438 237.453125 56.136719 C 238.035156 56.378906 238.625 56.589844 239.226562 56.773438 C 239.828125 56.957031 240.4375 57.109375 241.054688 57.230469 C 241.671875 57.355469 242.292969 57.445312 242.917969 57.507812 C 243.542969 57.570312 244.171875 57.601562 244.800781 57.601562 C 245.429688 57.601562 246.054688 57.570312 246.683594 57.507812 C 247.308594 57.445312 247.929688 57.355469 248.546875 57.230469 C 249.164062 57.109375 249.773438 56.957031 250.375 56.773438 C 250.976562 56.589844 251.566406 56.378906 252.148438 56.136719 C 252.726562 55.898438 253.296875 55.628906 253.851562 55.332031 C 254.40625 55.035156 254.945312 54.714844 255.46875 54.363281 C 255.988281 54.015625 256.496094 53.640625 256.980469 53.242188 C 257.464844 52.84375 257.933594 52.421875 258.375 51.976562 C 258.820312 51.53125 259.242188 51.066406 259.640625 50.582031 C 260.039062 50.09375 260.414062 49.589844 260.765625 49.066406 C 261.113281 48.542969 261.4375 48.003906 261.734375 47.449219 C 262.027344 46.894531 262.296875 46.328125 262.539062 45.746094 C 262.777344 45.167969 262.992188 44.574219 263.171875 43.972656 C 263.355469 43.371094 263.507812 42.761719 263.632812 42.144531 C 263.753906 41.527344 263.847656 40.90625 263.90625 40.28125 C 263.96875 39.65625 264 39.027344 264 38.398438 Z M 235.199219 38.398438 C 235.199219 37.769531 235.261719 37.144531 235.382812 36.527344 C 235.507812 35.910156 235.691406 35.308594 235.929688 34.726562 C 236.171875 34.144531 236.46875 33.589844 236.816406 33.066406 C 237.167969 32.542969 237.566406 32.058594 238.011719 31.613281 C 238.457031 31.167969 238.941406 30.769531 239.464844 30.417969 C 239.992188 30.066406 240.542969 29.773438 241.125 29.53125 C 241.707031 29.289062 242.308594 29.109375 242.925781 28.984375 C 243.546875 28.863281 244.167969 28.800781 244.800781 28.800781 C 245.429688 28.800781 246.054688 28.863281 246.671875 28.984375 C 247.292969 29.109375 247.890625 29.289062 248.472656 29.53125 C 249.054688 29.773438 249.609375 30.066406 250.132812 30.417969 C 250.65625 30.769531 251.140625 31.167969 251.589844 31.613281 C 252.035156 32.058594 252.433594 32.542969 252.78125 33.066406 C 253.132812 33.589844 253.429688 34.144531 253.667969 34.726562 C 253.910156 35.308594 254.09375 35.910156 254.214844 36.527344 C 254.339844 37.144531 254.398438 37.769531 254.398438 38.398438 C 254.398438 39.03125 254.339844 39.65625 254.214844 40.273438 C 254.09375 40.890625 253.910156 41.492188 253.667969 42.074219 C 253.429688 42.65625 253.132812 43.210938 252.78125 43.734375 C 252.433594 44.257812 252.035156 44.742188 251.589844 45.1875 C 251.140625 45.632812 250.65625 46.03125 250.132812 46.382812 C 249.609375 46.730469 249.054688 47.027344 248.472656 47.269531 C 247.890625 47.511719 247.292969 47.691406 246.671875 47.816406 C 246.054688 47.9375 245.429688 48 244.800781 48 C 244.167969 48 243.546875 47.9375 242.925781 47.816406 C 242.308594 47.691406 241.707031 47.511719 241.125 47.269531 C 240.542969 47.027344 239.992188 46.730469 239.464844 46.382812 C 238.941406 46.03125 238.457031 45.632812 238.011719 45.1875 C 237.566406 44.742188 237.167969 44.257812 236.816406 43.734375 C 236.46875 43.210938 236.171875 42.65625 235.929688 42.074219 C 235.691406 41.492188 235.507812 40.890625 235.382812 40.273438 C 235.261719 39.65625 235.199219 39.03125 235.199219 38.398438 Z M 235.199219 38.398438 " fill-opacity="1" fill-rule="nonzero"/><path fill="#ed1c24" d="M 258.339844 87.316406 L 278.332031 53.480469 C 279.109375 52.1875 279.796875 50.847656 280.394531 49.464844 C 280.996094 48.078125 281.5 46.660156 281.90625 45.207031 C 282.316406 43.753906 282.628906 42.28125 282.839844 40.789062 C 283.054688 39.292969 283.164062 37.792969 283.179688 36.285156 C 283.191406 34.773438 283.101562 33.269531 282.914062 31.773438 C 282.726562 30.277344 282.441406 28.800781 282.054688 27.339844 C 281.667969 25.882812 281.1875 24.453125 280.613281 23.058594 C 280.039062 21.664062 279.371094 20.3125 278.617188 19.007812 C 278.175781 18.285156 277.714844 17.578125 277.230469 16.886719 C 276.746094 16.195312 276.238281 15.519531 275.710938 14.859375 C 275.183594 14.199219 274.636719 13.558594 274.066406 12.933594 C 273.5 12.308594 272.910156 11.703125 272.300781 11.117188 C 271.695312 10.527344 271.070312 9.960938 270.425781 9.414062 C 269.78125 8.867188 269.121094 8.339844 268.441406 7.835938 C 267.765625 7.332031 267.070312 6.851562 266.363281 6.390625 C 265.65625 5.929688 264.933594 5.492188 264.195312 5.078125 C 263.460938 4.664062 262.710938 4.273438 261.949219 3.910156 C 261.1875 3.542969 260.414062 3.203125 259.632812 2.886719 C 258.847656 2.570312 258.054688 2.277344 257.253906 2.011719 C 256.453125 1.746094 255.640625 1.503906 254.824219 1.292969 C 254.007812 1.078125 253.183594 0.890625 252.355469 0.730469 C 251.523438 0.566406 250.691406 0.433594 249.855469 0.324219 C 249.015625 0.21875 248.175781 0.136719 247.332031 0.0820312 C 246.488281 0.0273438 245.644531 0 244.800781 0 C 243.957031 0 243.109375 0.0273438 242.269531 0.0820312 C 241.425781 0.136719 240.585938 0.21875 239.746094 0.324219 C 238.910156 0.433594 238.074219 0.566406 237.246094 0.730469 C 236.414062 0.890625 235.59375 1.078125 234.773438 1.292969 C 233.957031 1.503906 233.148438 1.746094 232.347656 2.011719 C 231.542969 2.277344 230.75 2.570312 229.96875 2.886719 C 229.183594 3.203125 228.414062 3.542969 227.652344 3.910156 C 226.890625 4.273438 226.140625 4.664062 225.402344 5.078125 C 224.667969 5.492188 223.945312 5.929688 223.238281 6.390625 C 222.527344 6.851562 221.835938 7.332031 221.15625 7.835938 C 220.480469 8.339844 219.820312 8.867188 219.175781 9.414062 C 218.53125 9.960938 217.90625 10.527344 217.296875 11.117188 C 216.691406 11.703125 216.101562 12.308594 215.53125 12.933594 C 214.964844 13.558594 214.414062 14.199219 213.886719 14.859375 C 213.359375 15.519531 212.855469 16.195312 212.371094 16.886719 C 211.886719 17.578125 211.421875 18.285156 210.984375 19.007812 C 208.402344 23.535156 206.933594 28.402344 206.578125 33.601562 L 48 33.601562 C 46.742188 33.601562 45.488281 33.660156 44.234375 33.785156 C 42.984375 33.90625 41.742188 34.09375 40.507812 34.335938 C 39.273438 34.582031 38.054688 34.886719 36.851562 35.253906 C 35.648438 35.617188 34.46875 36.042969 33.304688 36.523438 C 32.144531 37.003906 31.007812 37.542969 29.898438 38.132812 C 28.789062 38.726562 27.710938 39.371094 26.667969 40.070312 C 25.621094 40.769531 24.613281 41.519531 23.640625 42.316406 C 22.667969 43.113281 21.738281 43.957031 20.847656 44.847656 C 19.957031 45.738281 19.113281 46.667969 18.316406 47.640625 C 17.519531 48.613281 16.769531 49.621094 16.070312 50.667969 C 15.371094 51.710938 14.726562 52.789062 14.132812 53.898438 C 13.542969 55.007812 13.003906 56.144531 12.523438 57.304688 C 12.042969 58.46875 11.617188 59.648438 11.253906 60.851562 C 10.886719 62.054688 10.582031 63.273438 10.335938 64.507812 C 10.09375 65.742188 9.90625 66.984375 9.785156 68.234375 C 9.660156 69.488281 9.601562 70.742188 9.601562 72 C 9.601562 73.257812 9.660156 74.511719 9.785156 75.765625 C 9.90625 77.015625 10.09375 78.257812 10.335938 79.492188 C 10.582031 80.726562 10.886719 81.945312 11.253906 83.148438 C 11.617188 84.351562 12.042969 85.53125 12.523438 86.695312 C 13.003906 87.855469 13.542969 88.992188 14.132812 90.101562 C 14.726562 91.210938 15.371094 92.289062 16.070312 93.332031 C 16.769531 94.378906 17.519531 95.386719 18.316406 96.359375 C 19.113281 97.332031 19.957031 98.261719 20.847656 99.152344 C 21.738281 100.042969 22.667969 100.886719 23.640625 101.683594 C 24.613281 102.480469 25.621094 103.230469 26.667969 103.929688 C 27.710938 104.628906 28.789062 105.273438 29.898438 105.867188 C 31.007812 106.457031 32.144531 106.996094 33.304688 107.476562 C 34.46875 107.957031 35.648438 108.382812 36.851562 108.746094 C 38.054688 109.113281 39.273438 109.417969 40.507812 109.664062 C 41.742188 109.90625 42.984375 110.09375 44.234375 110.214844 C 45.488281 110.339844 46.742188 110.398438 48 110.398438 L 141.550781 110.398438 C 142.890625 110.402344 144.222656 110.46875 145.554688 110.601562 C 146.886719 110.734375 148.207031 110.929688 149.519531 111.191406 C 150.828125 111.453125 152.125 111.78125 153.40625 112.167969 C 154.683594 112.558594 155.941406 113.007812 157.175781 113.519531 C 158.414062 114.035156 159.621094 114.605469 160.800781 115.234375 C 161.976562 115.867188 163.125 116.554688 164.234375 117.296875 C 165.347656 118.039062 166.421875 118.835938 167.453125 119.683594 C 168.488281 120.535156 169.476562 121.429688 170.421875 122.375 C 171.367188 123.324219 172.265625 124.3125 173.113281 125.347656 C 173.964844 126.378906 174.757812 127.453125 175.503906 128.5625 C 176.246094 129.675781 176.933594 130.820312 177.5625 132 C 178.195312 133.179688 178.765625 134.386719 179.277344 135.621094 C 179.792969 136.859375 180.242188 138.117188 180.632812 139.394531 C 181.019531 140.675781 181.347656 141.96875 181.609375 143.28125 C 181.871094 144.59375 182.066406 145.914062 182.199219 147.246094 C 182.332031 148.578125 182.398438 149.910156 182.398438 151.246094 L 182.398438 155.953125 C 182.398438 157.238281 182.335938 158.519531 182.210938 159.800781 C 182.089844 161.078125 181.90625 162.351562 181.664062 163.613281 C 181.421875 164.875 181.117188 166.121094 180.757812 167.355469 C 180.398438 168.589844 179.976562 169.804688 179.503906 171 C 179.027344 172.191406 178.496094 173.363281 177.910156 174.507812 C 177.324219 175.652344 176.6875 176.765625 175.996094 177.847656 C 175.304688 178.933594 174.566406 179.980469 173.773438 180.996094 C 172.984375 182.011719 172.148438 182.984375 171.265625 183.921875 C 170.386719 184.855469 169.460938 185.746094 168.496094 186.59375 C 167.53125 187.445312 166.527344 188.246094 165.484375 188.996094 C 164.441406 189.75 163.367188 190.453125 162.257812 191.105469 C 161.152344 191.757812 160.015625 192.355469 158.851562 192.898438 C 157.6875 193.445312 156.5 193.933594 155.289062 194.367188 C 154.078125 194.796875 152.851562 195.171875 151.605469 195.488281 C 150.359375 195.808594 149.101562 196.0625 147.828125 196.261719 C 146.558594 196.460938 145.28125 196.597656 144 196.675781 L 144 187.199219 C 144 186.414062 143.960938 185.628906 143.882812 184.847656 C 143.804688 184.066406 143.6875 183.289062 143.535156 182.519531 C 143.378906 181.75 143.1875 180.988281 142.960938 180.238281 C 142.730469 179.484375 142.464844 178.746094 142.164062 178.019531 C 141.863281 177.292969 141.527344 176.585938 141.15625 175.890625 C 140.785156 175.199219 140.382812 174.527344 139.945312 173.875 C 139.507812 173.21875 139.042969 172.589844 138.542969 171.980469 C 138.042969 171.375 137.519531 170.792969 136.960938 170.238281 C 136.40625 169.683594 135.824219 169.15625 135.21875 168.65625 C 134.609375 168.15625 133.980469 167.691406 133.328125 167.253906 C 132.671875 166.816406 132 166.414062 131.308594 166.042969 C 130.613281 165.671875 129.90625 165.335938 129.179688 165.035156 C 128.453125 164.734375 127.714844 164.46875 126.964844 164.238281 C 126.210938 164.011719 125.449219 163.820312 124.679688 163.664062 C 123.910156 163.511719 123.132812 163.394531 122.351562 163.316406 C 121.570312 163.242188 120.785156 163.199219 120 163.199219 L 100.800781 163.199219 C 100.015625 163.199219 99.230469 163.242188 98.449219 163.316406 C 97.667969 163.394531 96.890625 163.511719 96.121094 163.664062 C 95.347656 163.820312 94.589844 164.011719 93.835938 164.238281 C 93.085938 164.46875 92.347656 164.734375 91.621094 165.035156 C 90.894531 165.335938 90.183594 165.671875 89.492188 166.042969 C 88.800781 166.414062 88.125 166.816406 87.472656 167.253906 C 86.820312 167.691406 86.191406 168.15625 85.582031 168.65625 C 84.976562 169.15625 84.394531 169.683594 83.835938 170.238281 C 83.28125 170.792969 82.753906 171.375 82.257812 171.980469 C 81.757812 172.589844 81.289062 173.21875 80.855469 173.875 C 80.417969 174.527344 80.011719 175.199219 79.640625 175.890625 C 79.273438 176.585938 78.9375 177.292969 78.632812 178.019531 C 78.332031 178.746094 78.070312 179.484375 77.839844 180.238281 C 77.609375 180.988281 77.417969 181.75 77.265625 182.519531 C 77.113281 183.289062 76.996094 184.066406 76.917969 184.847656 C 76.839844 185.628906 76.800781 186.414062 76.800781 187.199219 L 76.800781 225.601562 C 76.800781 225.914062 76.832031 226.226562 76.890625 226.535156 C 76.953125 226.84375 77.042969 227.144531 77.164062 227.4375 C 77.285156 227.726562 77.433594 228.003906 77.609375 228.265625 C 77.785156 228.527344 77.984375 228.769531 78.207031 228.992188 C 78.429688 229.21875 78.671875 229.414062 78.933594 229.589844 C 79.195312 229.765625 79.472656 229.914062 79.761719 230.035156 C 80.054688 230.15625 80.355469 230.246094 80.664062 230.308594 C 80.972656 230.371094 81.285156 230.398438 81.601562 230.398438 L 86.398438 230.398438 L 86.398438 283.199219 C 86.398438 283.515625 86.429688 283.828125 86.492188 284.136719 C 86.554688 284.445312 86.644531 284.746094 86.765625 285.035156 C 86.886719 285.328125 87.035156 285.605469 87.207031 285.867188 C 87.382812 286.128906 87.582031 286.371094 87.804688 286.59375 C 88.027344 286.816406 88.269531 287.015625 88.535156 287.191406 C 88.796875 287.367188 89.070312 287.515625 89.363281 287.632812 C 89.652344 287.753906 89.953125 287.847656 90.261719 287.90625 C 90.574219 287.96875 90.886719 288 91.199219 288 L 129.601562 288 C 129.914062 288 130.226562 287.96875 130.535156 287.90625 C 130.84375 287.847656 131.144531 287.753906 131.4375 287.632812 C 131.726562 287.515625 132.003906 287.367188 132.265625 287.191406 C 132.527344 287.015625 132.769531 286.816406 132.992188 286.59375 C 133.21875 286.371094 133.414062 286.128906 133.589844 285.867188 C 133.765625 285.605469 133.914062 285.328125 134.035156 285.035156 C 134.15625 284.746094 134.246094 284.445312 134.308594 284.136719 C 134.371094 283.828125 134.398438 283.515625 134.398438 283.199219 L 134.398438 230.398438 L 139.199219 230.398438 C 139.515625 230.398438 139.828125 230.371094 140.136719 230.308594 C 140.445312 230.246094 140.746094 230.15625 141.035156 230.035156 C 141.328125 229.914062 141.605469 229.765625 141.867188 229.589844 C 142.128906 229.414062 142.371094 229.21875 142.59375 228.992188 C 142.816406 228.769531 143.015625 228.527344 143.191406 228.265625 C 143.367188 228.003906 143.515625 227.726562 143.632812 227.4375 C 143.753906 227.144531 143.847656 226.84375 143.90625 226.535156 C 143.96875 226.226562 144 225.914062 144 225.601562 L 144 206.273438 C 145.597656 206.195312 147.1875 206.042969 148.769531 205.8125 C 150.355469 205.585938 151.921875 205.28125 153.476562 204.902344 C 155.03125 204.523438 156.5625 204.074219 158.074219 203.546875 C 159.585938 203.023438 161.070312 202.429688 162.523438 201.765625 C 163.980469 201.097656 165.398438 200.367188 166.785156 199.566406 C 168.167969 198.765625 169.511719 197.902344 170.816406 196.972656 C 172.117188 196.046875 173.375 195.058594 174.582031 194.011719 C 175.792969 192.960938 176.949219 191.859375 178.054688 190.703125 C 179.15625 189.542969 180.203125 188.335938 181.191406 187.082031 C 182.183594 185.824219 183.109375 184.523438 183.976562 183.175781 C 184.839844 181.832031 185.640625 180.449219 186.375 179.027344 C 187.109375 177.605469 187.773438 176.152344 188.367188 174.667969 C 188.964844 173.183594 189.488281 171.675781 189.941406 170.140625 C 190.394531 168.605469 190.773438 167.054688 191.078125 165.484375 C 191.382812 163.914062 191.609375 162.332031 191.765625 160.738281 C 191.917969 159.148438 191.996094 157.550781 192 155.953125 L 192 151.246094 C 192 149.597656 191.914062 147.949219 191.75 146.304688 C 191.589844 144.660156 191.34375 143.03125 191.019531 141.410156 C 190.699219 139.789062 190.296875 138.191406 189.816406 136.609375 C 189.335938 135.03125 188.777344 133.476562 188.144531 131.953125 C 187.511719 130.425781 186.804688 128.933594 186.027344 127.476562 C 185.246094 126.023438 184.398438 124.605469 183.480469 123.234375 C 182.5625 121.859375 181.578125 120.535156 180.53125 119.257812 C 179.484375 117.984375 178.375 116.761719 177.207031 115.59375 C 176.039062 114.425781 174.816406 113.316406 173.539062 112.269531 C 172.265625 111.222656 170.9375 110.238281 169.566406 109.320312 C 168.191406 108.402344 166.777344 107.554688 165.320312 106.773438 C 163.867188 105.996094 162.375 105.289062 160.847656 104.65625 C 159.324219 104.023438 157.769531 103.464844 156.191406 102.984375 C 154.609375 102.503906 153.007812 102.101562 151.390625 101.777344 C 149.769531 101.457031 148.136719 101.210938 146.496094 101.046875 C 144.851562 100.882812 143.203125 100.800781 141.550781 100.800781 L 48 100.800781 C 47.058594 100.800781 46.117188 100.753906 45.175781 100.660156 C 44.238281 100.570312 43.304688 100.429688 42.382812 100.246094 C 41.457031 100.0625 40.542969 99.832031 39.640625 99.558594 C 38.738281 99.285156 37.851562 98.96875 36.980469 98.609375 C 36.105469 98.246094 35.253906 97.84375 34.421875 97.398438 C 33.59375 96.953125 32.785156 96.46875 32 95.945312 C 31.214844 95.421875 30.457031 94.859375 29.730469 94.261719 C 29 93.664062 28.300781 93.03125 27.636719 92.363281 C 26.96875 91.699219 26.335938 91 25.738281 90.269531 C 25.140625 89.542969 24.578125 88.785156 24.054688 88 C 23.53125 87.214844 23.046875 86.40625 22.601562 85.578125 C 22.15625 84.746094 21.753906 83.894531 21.390625 83.019531 C 21.03125 82.148438 20.714844 81.261719 20.441406 80.359375 C 20.167969 79.457031 19.9375 78.542969 19.753906 77.617188 C 19.570312 76.695312 19.429688 75.761719 19.339844 74.824219 C 19.246094 73.882812 19.199219 72.941406 19.199219 72 C 19.199219 71.058594 19.246094 70.117188 19.339844 69.175781 C 19.429688 68.238281 19.570312 67.304688 19.753906 66.382812 C 19.9375 65.457031 20.167969 64.542969 20.441406 63.640625 C 20.714844 62.738281 21.03125 61.851562 21.390625 60.980469 C 21.753906 60.105469 22.15625 59.253906 22.601562 58.421875 C 23.046875 57.59375 23.53125 56.785156 24.054688 56 C 24.578125 55.214844 25.140625 54.457031 25.738281 53.730469 C 26.335938 53 26.96875 52.300781 27.636719 51.636719 C 28.300781 50.96875 29 50.335938 29.730469 49.738281 C 30.457031 49.140625 31.214844 48.578125 32 48.054688 C 32.785156 47.53125 33.59375 47.046875 34.421875 46.601562 C 35.253906 46.15625 36.105469 45.753906 36.980469 45.390625 C 37.851562 45.03125 38.738281 44.714844 39.640625 44.441406 C 40.542969 44.167969 41.457031 43.9375 42.382812 43.753906 C 43.304688 43.570312 44.238281 43.429688 45.175781 43.339844 C 46.117188 43.246094 47.058594 43.199219 48 43.199219 L 207.277344 43.199219 C 208.058594 46.839844 209.386719 50.269531 211.265625 53.480469 L 231.257812 87.316406 C 215.519531 89.417969 201.601562 95.453125 201.601562 105.601562 C 201.601562 118.203125 223.328125 124.800781 244.800781 124.800781 C 266.269531 124.800781 288 118.203125 288 105.601562 C 288 95.453125 274.078125 89.417969 258.339844 87.316406 Z M 134.398438 220.800781 L 129.601562 220.800781 C 129.285156 220.800781 128.972656 220.832031 128.664062 220.890625 C 128.355469 220.953125 128.054688 221.042969 127.761719 221.164062 C 127.472656 221.285156 127.195312 221.433594 126.933594 221.609375 C 126.671875 221.785156 126.429688 221.984375 126.207031 222.207031 C 125.984375 222.429688 125.785156 222.671875 125.609375 222.933594 C 125.433594 223.195312 125.285156 223.472656 125.164062 223.761719 C 125.042969 224.054688 124.953125 224.355469 124.890625 224.664062 C 124.832031 224.972656 124.800781 225.285156 124.800781 225.601562 L 124.800781 278.398438 L 96 278.398438 L 96 225.601562 C 96 225.285156 95.96875 224.972656 95.90625 224.664062 C 95.847656 224.355469 95.753906 224.054688 95.632812 223.761719 C 95.515625 223.472656 95.367188 223.195312 95.191406 222.933594 C 95.015625 222.671875 94.816406 222.429688 94.59375 222.207031 C 94.371094 221.984375 94.128906 221.785156 93.867188 221.609375 C 93.605469 221.433594 93.328125 221.285156 93.035156 221.164062 C 92.746094 221.042969 92.445312 220.953125 92.136719 220.890625 C 91.828125 220.832031 91.515625 220.800781 91.199219 220.800781 L 86.398438 220.800781 L 86.398438 187.199219 C 86.398438 186.253906 86.492188 185.316406 86.675781 184.390625 C 86.859375 183.464844 87.132812 182.5625 87.496094 181.6875 C 87.859375 180.816406 88.300781 179.984375 88.828125 179.199219 C 89.351562 178.414062 89.949219 177.6875 90.617188 177.019531 C 91.285156 176.347656 92.011719 175.753906 92.800781 175.226562 C 93.585938 174.703125 94.414062 174.257812 95.289062 173.894531 C 96.164062 173.535156 97.0625 173.261719 97.992188 173.078125 C 98.917969 172.890625 99.855469 172.800781 100.800781 172.800781 L 120 172.800781 C 120.945312 172.800781 121.882812 172.890625 122.808594 173.078125 C 123.738281 173.261719 124.636719 173.535156 125.511719 173.894531 C 126.382812 174.257812 127.214844 174.703125 128 175.226562 C 128.785156 175.753906 129.515625 176.347656 130.183594 177.019531 C 130.851562 177.6875 131.449219 178.414062 131.972656 179.199219 C 132.5 179.984375 132.941406 180.816406 133.304688 181.6875 C 133.664062 182.5625 133.9375 183.464844 134.125 184.390625 C 134.308594 185.316406 134.398438 186.253906 134.398438 187.199219 Z M 219.527344 48.59375 C 218.960938 47.667969 218.457031 46.703125 218.019531 45.707031 C 217.585938 44.710938 217.214844 43.6875 216.917969 42.640625 C 216.617188 41.597656 216.390625 40.535156 216.234375 39.457031 C 216.082031 38.378906 215.996094 37.296875 215.988281 36.207031 C 215.980469 35.121094 216.042969 34.035156 216.179688 32.957031 C 216.320312 31.878906 216.527344 30.8125 216.808594 29.761719 C 217.089844 28.710938 217.441406 27.679688 217.863281 26.675781 C 218.285156 25.675781 218.769531 24.703125 219.320312 23.765625 C 219.65625 23.226562 220.007812 22.699219 220.375 22.179688 C 220.746094 21.664062 221.128906 21.160156 221.527344 20.667969 C 221.929688 20.175781 222.34375 19.699219 222.777344 19.230469 C 223.207031 18.765625 223.652344 18.3125 224.109375 17.875 C 224.570312 17.4375 225.042969 17.015625 225.527344 16.609375 C 226.015625 16.199219 226.511719 15.808594 227.023438 15.433594 C 227.535156 15.058594 228.058594 14.699219 228.589844 14.355469 C 229.125 14.011719 229.667969 13.6875 230.222656 13.378906 C 230.777344 13.070312 231.34375 12.78125 231.914062 12.507812 C 232.488281 12.234375 233.070312 11.980469 233.65625 11.746094 C 234.246094 11.507812 234.84375 11.292969 235.445312 11.09375 C 236.046875 10.898438 236.65625 10.71875 237.269531 10.558594 C 237.886719 10.398438 238.503906 10.261719 239.125 10.140625 C 239.75 10.019531 240.375 9.921875 241.003906 9.839844 C 241.632812 9.757812 242.265625 9.699219 242.898438 9.660156 C 243.53125 9.617188 244.164062 9.597656 244.800781 9.597656 C 245.433594 9.597656 246.066406 9.617188 246.703125 9.660156 C 247.335938 9.699219 247.964844 9.757812 248.59375 9.839844 C 249.222656 9.921875 249.851562 10.019531 250.472656 10.140625 C 251.097656 10.261719 251.714844 10.398438 252.328125 10.558594 C 252.941406 10.71875 253.550781 10.898438 254.152344 11.09375 C 254.757812 11.292969 255.351562 11.507812 255.941406 11.746094 C 256.53125 11.980469 257.113281 12.234375 257.683594 12.507812 C 258.257812 12.78125 258.820312 13.070312 259.375 13.378906 C 259.929688 13.6875 260.472656 14.011719 261.007812 14.355469 C 261.542969 14.699219 262.066406 15.058594 262.574219 15.433594 C 263.085938 15.808594 263.585938 16.199219 264.070312 16.609375 C 264.558594 17.015625 265.03125 17.4375 265.488281 17.875 C 265.949219 18.3125 266.394531 18.765625 266.824219 19.230469 C 267.253906 19.699219 267.671875 20.175781 268.070312 20.667969 C 268.472656 21.160156 268.855469 21.664062 269.222656 22.179688 C 269.59375 22.699219 269.945312 23.226562 270.277344 23.765625 C 270.832031 24.703125 271.316406 25.675781 271.738281 26.675781 C 272.15625 27.679688 272.507812 28.710938 272.789062 29.761719 C 273.070312 30.8125 273.28125 31.878906 273.417969 32.957031 C 273.554688 34.035156 273.621094 35.121094 273.609375 36.207031 C 273.601562 37.296875 273.519531 38.378906 273.363281 39.457031 C 273.207031 40.535156 272.980469 41.597656 272.683594 42.640625 C 272.382812 43.6875 272.015625 44.710938 271.578125 45.707031 C 271.140625 46.703125 270.640625 47.667969 270.070312 48.59375 L 244.800781 91.363281 Z M 244.800781 115.199219 C 222.972656 115.199219 211.199219 108.382812 211.199219 105.601562 C 211.199219 103.527344 219.140625 97.886719 236.640625 96.4375 L 240.65625 103.242188 C 240.761719 103.421875 240.878906 103.59375 241.007812 103.757812 C 241.136719 103.921875 241.273438 104.074219 241.421875 104.222656 C 241.570312 104.367188 241.726562 104.503906 241.890625 104.628906 C 242.058594 104.753906 242.230469 104.867188 242.410156 104.96875 C 242.589844 105.074219 242.777344 105.164062 242.96875 105.242188 C 243.164062 105.320312 243.359375 105.386719 243.558594 105.441406 C 243.761719 105.496094 243.964844 105.535156 244.167969 105.5625 C 244.375 105.589844 244.582031 105.601562 244.789062 105.601562 C 245 105.601562 245.203125 105.589844 245.410156 105.5625 C 245.617188 105.535156 245.820312 105.496094 246.019531 105.441406 C 246.222656 105.386719 246.417969 105.320312 246.609375 105.242188 C 246.804688 105.164062 246.988281 105.074219 247.167969 104.96875 C 247.351562 104.867188 247.523438 104.753906 247.6875 104.628906 C 247.855469 104.503906 248.011719 104.367188 248.160156 104.222656 C 248.308594 104.074219 248.445312 103.921875 248.574219 103.757812 C 248.699219 103.59375 248.816406 103.421875 248.921875 103.242188 L 252.941406 96.4375 C 270.453125 97.875 278.378906 103.527344 278.378906 105.601562 C 278.398438 108.382812 266.625 115.199219 244.800781 115.199219 Z M 244.800781 115.199219 " fill-opacity="1" fill-rule="nonzero"/></svg>