<svg xmlns="http://www.w3.org/2000/svg" xmlns:xlink="http://www.w3.org/1999/xlink" width="500" zoomAndPan="magnify" viewBox="0 0 375 374.999991" height="500" preserveAspectRatio="xMidYMid meet" version="1.0"><defs><g/></defs><rect x="-37.5" width="450" fill="#ffffff" y="-37.499999" height="449.999989" fill-opacity="1"/><rect x="-37.5" width="450" fill="#ffffff" y="-37.499999" height="449.999989" fill-opacity="1"/><path fill="#ff0000" d="M 212.09375 219.527344 C 220.183594 227.402344 234.03125 230.371094 245.851562 224 C 254.679688 219.234375 262.496094 209.449219 261.539062 195.578125 C 260.894531 186.183594 244.660156 159.378906 235.476562 144.316406 C 228.542969 132.929688 222.761719 120.582031 212.972656 111.265625 C 192.636719 91.925781 167.476562 103.175781 159.175781 124.15625 C 166.148438 120.386719 171.34375 117.867188 183.75 119.996094 C 206.390625 123.882812 217.957031 154.730469 228.484375 173.09375 C 231.042969 177.546875 233.542969 181.921875 236.257812 186.574219 C 237.960938 189.484375 239.894531 192.902344 240.695312 196.164062 C 242.902344 205.171875 234.03125 209.996094 226.433594 203.605469 C 216.46875 195.226562 206.410156 172.214844 201.605469 163.65625 C 193.789062 149.710938 184.394531 135.234375 164.253906 138.632812 C 144.132812 142.050781 136.042969 163.03125 125.144531 182.390625 C 112.503906 204.796875 129.753906 230.546875 154.992188 227.011719 C 162.417969 225.976562 167.535156 222.652344 171.519531 218.296875 C 174.234375 215.347656 179.960938 206.890625 181.445312 203.078125 L 169.976562 183.25 C 169.78125 183.425781 169.683594 183.582031 169.097656 184.285156 L 161.480469 197.21875 C 152.84375 211.988281 140.65625 208.355469 141.457031 198.429688 C 142.023438 191.085938 149.210938 181.179688 151.4375 177.390625 C 158.023438 166.140625 167.984375 147.992188 179.84375 166.570312 C 182.011719 169.988281 184.394531 174.539062 185.996094 177.273438 C 187.539062 179.890625 188.75 182.097656 190.253906 184.734375 C 197.246094 195.675781 203.128906 210.796875 212.09375 219.527344 Z M 212.09375 219.527344 " fill-opacity="1" fill-rule="evenodd"/><g fill="#c90000" fill-opacity="1"><g transform="translate(47.489804, 260.356068)"><g><path d="M 0.464844 0 L 5.152344 0 L 5.960938 -2.226562 L 12.816406 -2.226562 L 13.65625 0 L 18.316406 0 L 9.605469 -21.441406 L 9.171875 -21.441406 Z M 7.464844 -6.105469 L 9.402344 -11.488281 L 11.285156 -6.105469 Z M 7.464844 -6.105469 "/></g></g></g><g fill="#c90000" fill-opacity="1"><g transform="translate(74.110036, 260.356068)"><g><path d="M 17.246094 -1.273438 L 17.246094 -10.359375 L 13.050781 -10.359375 L 13.050781 -4.136719 C 12.671875 -4.078125 12.269531 -4.023438 11.890625 -4.023438 C 3.90625 -4.023438 3.53125 -16.378906 11.890625 -16.667969 C 14.089844 -16.722656 15.421875 -16.261719 16.234375 -15.914062 L 16.722656 -20.109375 C 16.347656 -20.226562 14.351562 -20.949219 11.890625 -20.863281 C -2.460938 -20.339844 -1.765625 0.117188 11.890625 0.117188 C 13.859375 0.117188 15.652344 -0.375 17.246094 -1.273438 Z M 17.246094 -1.273438 "/></g></g></g><g fill="#c90000" fill-opacity="1"><g transform="translate(101.308938, 260.356068)"><g><path d="M 0.464844 0 L 5.152344 0 L 5.960938 -2.226562 L 12.816406 -2.226562 L 13.65625 0 L 18.316406 0 L 9.605469 -21.441406 L 9.171875 -21.441406 Z M 7.464844 -6.105469 L 9.402344 -11.488281 L 11.285156 -6.105469 Z M 7.464844 -6.105469 "/></g></g></g><g fill="#c90000" fill-opacity="1"><g transform="translate(127.92917, 260.356068)"><g><path d="M 6.453125 0 L 6.453125 -7.898438 L 10.445312 -7.898438 C 18.460938 -7.898438 18.488281 -20.660156 10.445312 -20.660156 L 2.316406 -20.660156 L 2.316406 0 Z M 6.453125 -11.921875 L 6.453125 -16.550781 L 10.097656 -16.550781 C 12.875 -16.550781 12.875 -11.921875 10.097656 -11.921875 Z M 6.453125 -11.921875 "/></g></g></g><g fill="#c90000" fill-opacity="1"><g transform="translate(153.102732, 260.356068)"><g><path d="M 0.464844 0 L 5.152344 0 L 5.960938 -2.226562 L 12.816406 -2.226562 L 13.65625 0 L 18.316406 0 L 9.605469 -21.441406 L 9.171875 -21.441406 Z M 7.464844 -6.105469 L 9.402344 -11.488281 L 11.285156 -6.105469 Z M 7.464844 -6.105469 "/></g></g></g><g fill="#c90000" fill-opacity="1"><g transform="translate(179.722958, 260.356068)"><g><path d="M 7.378906 0 L 11.488281 0 L 11.488281 -9.316406 L 18.722656 -20.6875 L 13.65625 -20.6875 L 9.433594 -13.570312 L 5.207031 -20.6875 L 0.171875 -20.6875 L 7.378906 -9.316406 Z M 7.378906 0 "/></g></g></g><g fill="#c90000" fill-opacity="1"><g transform="translate(206.22745, 260.356068)"><g><path d="M 12.617188 0 L 17.304688 0 L 12.5 -8.535156 C 18.578125 -10.300781 17.851562 -20.6875 10.472656 -20.6875 L 2.316406 -20.6875 L 2.316406 0 L 6.453125 0 L 6.453125 -7.898438 L 8.449219 -7.898438 Z M 6.453125 -11.921875 L 6.453125 -16.550781 L 10.097656 -16.550781 C 12.90625 -16.550781 12.90625 -11.921875 10.097656 -11.921875 Z M 6.453125 -11.921875 "/></g></g></g><g fill="#c90000" fill-opacity="1"><g transform="translate(231.690346, 260.356068)"><g><path d="M 13.019531 0 L 13.019531 -4.136719 L 6.453125 -4.136719 L 6.453125 -8.277344 L 11.890625 -8.277344 L 11.890625 -12.414062 L 6.453125 -12.414062 L 6.453125 -16.550781 L 12.671875 -16.550781 L 12.671875 -20.6875 L 2.316406 -20.6875 L 2.316406 0 Z M 13.019531 0 "/></g></g></g><g fill="#c90000" fill-opacity="1"><g transform="translate(253.99948, 260.356068)"><g><path d="M 0.464844 0 L 5.152344 0 L 5.960938 -2.226562 L 12.816406 -2.226562 L 13.65625 0 L 18.316406 0 L 9.605469 -21.441406 L 9.171875 -21.441406 Z M 7.464844 -6.105469 L 9.402344 -11.488281 L 11.285156 -6.105469 Z M 7.464844 -6.105469 "/></g></g></g><g fill="#c90000" fill-opacity="1"><g transform="translate(280.619717, 260.356068)"><g><path d="M 8.476562 -20.6875 L 2.316406 -20.6875 L 2.316406 0 L 8.476562 0 C 22.25 0 22.25 -20.6875 8.476562 -20.6875 Z M 8.476562 -16.550781 C 16.523438 -16.550781 16.523438 -4.136719 8.476562 -4.136719 L 6.453125 -4.136719 L 6.453125 -16.550781 Z M 8.476562 -16.550781 "/></g></g></g><g fill="#c90000" fill-opacity="1"><g transform="translate(308.715556, 260.356068)"><g><path d="M 7.378906 0 L 11.488281 0 L 11.488281 -9.316406 L 18.722656 -20.6875 L 13.65625 -20.6875 L 9.433594 -13.570312 L 5.207031 -20.6875 L 0.171875 -20.6875 L 7.378906 -9.316406 Z M 7.378906 0 "/></g></g></g></svg>